<?xml version="1.0" standalone="no"?>
<!DOCTYPE svg PUBLIC "-//W3C//DTD SVG 20010904//EN"
 "http://www.w3.org/TR/2001/REC-SVG-20010904/DTD/svg10.dtd">
<svg version="1.0" xmlns="http://www.w3.org/2000/svg"
 width="1532.000000pt" height="1532.000000pt" viewBox="0 0 1532.000000 1532.000000"
 preserveAspectRatio="xMidYMid meet">

<g transform="translate(0.000000,1532.000000) scale(0.100000,-0.100000)" stroke="none">
<path id="REVITUP" aria-label="REVITUP" d="M1825 15308 c-200 -20 -450 -91 -643 -183 -225 -108 -385 -218 -556
-384 -328 -320 -519 -686 -603 -1156 -17 -95 -18 -378 -18 -5925 0 -5547 1
-5830 18 -5925 68 -378 210 -697 434 -975 83 -102 260 -273 360 -347 308 -228
675 -370 1043 -403 91 -8 1703 -10 5880 -8 5396 3 5761 4 5846 20 455 86 805
262 1108 557 328 320 519 686 603 1156 17 95 18 378 18 5925 0 5547 -1 5830
-18 5925 -68 378 -210 697 -434 975 -83 102 -260 273 -360 347 -302 224 -669
367 -1027 402 -139 14 -11517 13 -11651 -1z m9935 -3492 c0 -14 -29 -357 -65
-763 -36 -406 -65 -748 -65 -760 l0 -23 -2710 0 -2710 0 0 -42 c0 -24 29 -445
65 -936 36 -491 65 -895 65 -897 0 -3 1084 -5 2409 -5 1326 0 2412 -3 2414 -7
2 -5 -24 -327 -59 -718 -35 -390 -63 -716 -63 -722 -1 -10 -491 -13 -2416 -13
-1328 0 -2415 -4 -2415 -8 0 -5 -104 -426 -230 -936 -126 -511 -230 -930 -230
-932 0 -2 1231 -4 2735 -4 l2735 0 0 -33 c0 -48 -129 -1519 -135 -1534 -3 -10
-766 -13 -3765 -13 -3549 0 -3760 1 -3760 17 0 10 228 952 506 2094 l505 2077
-143 2091 -143 2091 3737 0 3738 0 0 -24z"/>
</g>
</svg>
