<svg version="1.2" xmlns="http://www.w3.org/2000/svg" viewBox="0 0 3104 475" width="3104" height="475">
	<path id="REVITUP" aria-label="REVITUP" shape-rendering="geometricPrecision" d="m93 288.5l7.2-81.8h179.1q35.4 0 57.2-16.1 22.6-16.7 25.1-45.9 2.6-29.1-17.1-45.2-19-16.1-54.4-16.1h-194.6l52.4-54-38.1 435.8h-105.4l40.7-464.9h264.7q50.8 0 87.6 18.6 36.9 18 55.8 50.2 18.8 32.2 15 75.6-3.7 42.8-28.2 75-24.5 32.3-64.6 50.9-40 17.9-90.8 17.9zm237.4 176.7l-153.3-217.6h120.3l156.4 217.6zm238.9-272.7h332.9l-7 80.5h-332.9zm53.4-156.8l13.7 197.1-48.2 197.2-41.3-52.1h358.3l-7.7 87.4h-418.4l56.3-232.5-15.6-232.4h415.3l-7.7 87.4h-355.1zm427-35.3l155 418.4h-46.5l226.3-418.4h111.6l-261.4 464.9h-118.4l-179.4-464.9zm431.1 464.9l40.7-464.9h105.3l-40.6 464.9zm323.5 0l36.6-417.8h104.7l-36.5 417.8zm-152.8-372l8.1-92.9h474.8l-8.1 92.9zm616.2-92.9l-22.8 260.9q-3.2 37.2 8.7 63.9 11.9 26.6 37.9 41.5 26.6 14.3 65.7 14.3 39.7 0 68.2-14.3 28.6-14.9 45.1-41.5 16.6-26.7 19.9-63.9l22.8-260.9h105.4l-23.3 265.9q-5.4 62.6-38.1 109.7-32.6 46.5-86.3 72.5-53.7 26.1-121.9 26.1-68.2 0-117.4-26.1-48.5-26-73.6-72.5-24.4-47.1-18.9-109.7l23.3-265.9zm415.3 0h253.5q55.2 0 93.8 19.2 38.6 19.2 56.6 53.9 18.7 34.7 14.7 80.6-4 45.9-28.8 80.6-24 34.1-66 53.9-42 19.2-97.2 19.2h-205.2l7.6-86.8h199.6q36.6 0 58.6-17.9 22.7-18 25.4-49 2.8-31.6-16.8-49-18.9-18-55.5-18h-190.3l52.2-50.2-37.5 428.4h-105.4z"/>
</svg>